<svg width="988" height="557" viewBox="0 0 988 557" fill="none" xmlns="http://www.w3.org/2000/svg">
<path d="M22.8736 391.004V333.227L167.74 104.999H217.554V184.972H188.072L96.7469 329.499V332.21H302.61V391.004H22.8736ZM189.427 452V373.383L190.783 347.798V104.999H259.573V452H189.427ZM487.547 459.625C458.404 459.512 433.328 452.339 412.318 438.106C391.421 423.874 375.325 403.259 364.029 376.263C352.847 349.266 347.312 316.791 347.425 278.838C347.425 240.998 353.016 208.749 364.199 182.091C375.494 155.434 391.591 135.158 412.488 121.264C433.497 107.258 458.517 100.255 487.547 100.255C516.577 100.255 541.54 107.258 562.437 121.264C583.447 135.271 599.599 155.603 610.895 182.261C622.191 208.805 627.782 240.998 627.669 278.838C627.669 316.904 622.021 349.436 610.726 376.432C599.543 403.429 583.503 424.043 562.606 438.276C541.709 452.508 516.69 459.625 487.547 459.625ZM487.547 398.798C507.427 398.798 523.298 388.801 535.158 368.808C547.018 348.815 552.892 318.825 552.779 278.838C552.779 252.519 550.068 230.606 544.646 213.098C539.337 195.59 531.769 182.43 521.942 173.62C512.228 164.809 500.763 160.404 487.547 160.404C467.78 160.404 451.966 170.287 440.105 190.055C428.245 209.822 422.258 239.417 422.145 278.838C422.145 305.496 424.8 327.748 430.109 345.595C435.531 363.329 443.155 376.658 452.982 385.582C462.81 394.392 474.331 398.798 487.547 398.798ZM674.729 391.004V333.227L819.596 104.999H869.409V184.972H839.928L748.603 329.499V332.21H954.465V391.004H674.729ZM841.283 452V373.383L842.639 347.798V104.999H911.429V452H841.283Z" fill="#F1F1F1"/>
<path d="M897.804 221.688C897.006 225.445 898.395 228.672 901.093 230.955C901.093 230.955 901.093 230.955 901.096 230.957C904.982 234.647 910.686 233.012 913.636 235.076C916.172 236.85 914.863 241.119 919.271 248.196C919.276 248.195 919.279 248.197 919.283 248.196C921.487 251.919 925.302 254.821 930.047 255.901C938.783 257.889 945.894 253.937 948.828 245.673C950.858 237.563 945.937 228.789 936.999 226.424C933.362 225.463 930.347 226.28 926.611 225.843C924.842 225.636 923.761 225.721 922.125 225.016C919.035 223.685 918.831 220.901 916.379 218.598C913.118 215.536 909.72 214.251 905.936 214.304C902.152 214.356 898.696 217.492 897.804 221.688Z" fill="#F1F1F1"/>
<path d="M355.567 100.719C355.567 100.719 356.618 103.397 358.487 103.385C360.357 103.373 361.789 101.381 361.339 99.9738C360.889 98.5664 358.033 96.9501 356.187 97.7706C354.499 98.518 355.567 100.719 355.567 100.719Z" fill="#F1F1F1"/>
<path d="M372.067 453.179C372.067 453.179 382.778 446.645 381.381 439.242C379.983 431.839 370.421 427.919 364.717 430.947C359.012 433.975 354.144 446.727 358.988 453.323C363.405 459.358 372.067 453.179 372.067 453.179Z" fill="#F1F1F1"/>
<path d="M982.635 180.234C982.635 180.234 977.504 181.23 977.044 184.009C976.584 186.788 979.829 189.335 982.499 188.964C985.17 188.593 988.841 184.693 987.828 181.778C986.907 179.113 982.635 180.234 982.635 180.234Z" fill="#F1F1F1"/>
<path d="M586.451 79.3128C586.451 79.3128 572.341 83.0082 570.867 92.4015C569.393 101.795 578.058 110.154 585.371 108.733C592.683 107.312 603.05 93.9386 600.534 84.1781C598.23 75.2696 586.451 79.3128 586.451 79.3128Z" fill="#F1F1F1"/>
<path d="M70.2667 401.593C70.2667 401.593 61.0007 406.84 63.0257 412.575C65.0507 418.309 74.2724 421.207 79.2384 418.773C84.2045 416.338 87.4709 406.345 82.3566 401.281C77.6829 396.661 70.2667 401.593 70.2667 401.593Z" fill="#F1F1F1"/>
<path d="M945.822 423.854C945.822 423.854 948.998 434.406 956.13 435.261C963.262 436.116 969.336 429.345 968.063 423.863C966.789 418.382 956.409 410.921 949.109 413.088C942.447 415.072 945.822 423.854 945.822 423.854Z" fill="#F1F1F1"/>
<path d="M28.9692 168.338C28.9692 168.338 24.8194 163.952 21.0608 165.235C17.3023 166.518 15.9269 171.265 17.8951 173.633C19.8633 176.001 26.8469 177.163 29.9533 174.368C32.787 171.813 28.9692 168.338 28.9692 168.338Z" fill="#F1F1F1"/>
<path d="M525.209 455.702C521.897 453.48 519.112 450.383 517.241 446.543C511.572 434.908 516.447 420.86 528.131 415.168C539.814 409.475 553.882 414.293 559.551 425.929C562.751 432.497 562.013 439.184 559.744 446.001C558.584 452.394 556.339 461.663 559.152 467.637C562.09 473.874 577.268 481.705 577.268 481.705C577.268 481.705 589.635 487.674 592.811 494.194C598.481 505.83 593.605 519.877 581.922 525.57C570.238 531.262 556.171 526.444 550.502 514.808C546.775 507.161 548.299 502.884 548.184 502.94C548.184 502.94 553.254 483.856 548.275 473.909C543.435 464.238 524.987 455.811 524.987 455.811L525.209 455.702Z" fill="#F1F1F1"/>
<path d="M838.226 290.963C839.036 289.841 840.143 288.912 841.497 288.309C845.6 286.482 850.413 288.34 852.248 292.459C854.083 296.579 852.245 301.399 848.142 303.227C845.826 304.258 843.516 303.923 841.179 303.055C838.976 302.576 835.788 301.687 833.683 302.592C831.485 303.536 828.589 308.706 828.589 308.706C828.589 308.706 826.372 312.924 824.073 313.948C819.971 315.775 815.157 313.917 813.322 309.798C811.487 305.678 813.326 300.857 817.428 299.03C820.125 297.829 821.59 298.408 821.572 298.368C821.572 298.368 828.129 300.353 831.638 298.745C835.049 297.182 838.191 290.885 838.191 290.885L838.226 290.963Z" fill="#F1F1F1"/>
<path d="M689.699 390.715C689.351 389.101 689.411 387.377 689.957 385.696C691.611 380.599 697.101 377.815 702.218 379.476C707.335 381.138 710.142 386.616 708.488 391.712C707.554 394.588 705.412 396.369 702.777 397.748C700.594 399.32 697.262 401.437 696.383 404.025C695.466 406.727 697.738 413.423 697.738 413.423C697.738 413.423 699.708 418.755 698.781 421.61C697.126 426.707 691.637 429.491 686.519 427.83C681.402 426.168 678.595 420.69 680.25 415.594C681.337 412.245 683.021 411.408 682.97 411.392C682.97 411.392 689.965 407.162 691.34 402.768C692.677 398.495 689.602 390.683 689.602 390.683L689.699 390.715Z" fill="#F1F1F1"/>
<path d="M352.302 134.453C350.264 133.923 348.336 132.865 346.734 131.278C341.88 126.469 341.86 118.619 346.689 113.745C351.518 108.872 359.368 108.819 364.222 113.629C366.962 116.343 367.761 119.804 367.819 123.597C368.355 126.984 368.853 131.995 371.297 134.481C373.848 137.076 382.776 138.332 382.776 138.332C382.776 138.332 389.979 139.149 392.699 141.844C397.553 146.654 397.573 154.504 392.744 159.377C387.915 164.251 380.066 164.303 375.212 159.494C372.021 156.333 372.035 153.936 371.987 153.984C371.987 153.984 371.186 143.591 366.97 139.503C362.872 135.528 352.21 134.546 352.21 134.546L352.302 134.453Z" fill="#F1F1F1"/>
<path d="M59.6511 174.214C55.7319 173.473 51.9532 171.721 48.7232 168.926C38.9349 160.457 37.8935 145.624 46.3971 135.796C54.9008 125.968 69.7294 124.865 79.5177 133.334C85.0426 138.115 86.9944 144.553 87.5889 151.713C89.0359 158.048 90.6172 167.453 95.553 171.839C100.706 176.418 117.741 177.65 117.741 177.65C117.741 177.65 131.459 178.274 136.943 183.02C146.732 191.489 147.773 206.322 139.269 216.15C130.766 225.979 115.937 227.081 106.149 218.612C99.7154 213.045 99.4348 208.514 99.351 208.611C99.351 208.611 96.5075 189.071 88.0183 181.883C79.7651 174.895 59.4891 174.401 59.4891 174.401L59.6511 174.214Z" fill="#F1F1F1"/>
<path d="M111.318 305.03C110.335 304.879 109.378 304.475 108.549 303.806C106.037 301.779 105.65 298.09 107.685 295.568C109.721 293.045 113.407 292.643 115.92 294.67C117.338 295.815 117.879 297.403 118.089 299.182C118.504 300.749 118.979 303.08 120.247 304.131C121.57 305.228 125.827 305.389 125.827 305.389C125.827 305.389 129.252 305.427 130.659 306.563C133.172 308.59 133.558 312.278 131.523 314.801C129.488 317.324 125.801 317.725 123.289 315.698C121.637 314.366 121.529 313.239 121.508 313.264C121.508 313.264 120.632 308.418 118.455 306.699C116.338 305.028 111.279 305.078 111.279 305.078L111.318 305.03Z" fill="#F1F1F1"/>
</svg>
